HIERARCHY
ROOT Hips
{
	OFFSET 0.000000 0.000000 0.000000
	CHANNELS 6 Xposition Yposition Zposition Zrotation Yrotation Xrotation 
	JOINT LeftUpLeg_virtual
	{
		OFFSET 0.000000 0.000000 0.000000
		CHANNELS 3 Zrotation Yrotation Xrotation
		JOINT LeftUpLeg
		{
			OFFSET 8.479694 -4.795517 -0.379053
			CHANNELS 3 Zrotation Yrotation Xrotation
			JOINT LeftLeg
			{
				OFFSET 0.485052 -32.551468 0.112863
				CHANNELS 3 Zrotation Yrotation Xrotation
				JOINT LeftFoot
				{
					OFFSET 0.438033 -32.635670 -3.012641
					CHANNELS 3 Zrotation Yrotation Xrotation
					JOINT LeftToeBase
					{
						OFFSET 0.970169 -13.225353 11.864223
						CHANNELS 3 Zrotation Yrotation Xrotation
						End Site
						{
							OFFSET 0.000000 0.000000 0.000000
						}
					}
				}
			}
		}
	}
	JOINT RightUpLeg_virtual
	{
		OFFSET 0.000000 0.000000 0.000000
		CHANNELS 3 Zrotation Yrotation Xrotation
		JOINT RightUpLeg
		{
			OFFSET -8.479694 -4.795517 -0.379053
			CHANNELS 3 Zrotation Yrotation Xrotation
			JOINT RightLeg
			{
				OFFSET -0.484100 -32.551483 0.112903
				CHANNELS 3 Zrotation Yrotation Xrotation
				JOINT RightFoot
				{
					OFFSET -0.438985 -32.635651 -3.012681
					CHANNELS 3 Zrotation Yrotation Xrotation
					JOINT RightToeBase
					{
						OFFSET -0.970169 -13.225354 11.864223
						CHANNELS 3 Zrotation Yrotation Xrotation
						End Site
						{
							OFFSET 0.000000 0.000000 0.000000
						}
					}
				}
			}
		}
	}
	JOINT Spine_virtual
	{
		OFFSET 0.000000 0.000000 0.000000
		CHANNELS 3 Zrotation Yrotation Xrotation
		JOINT Spine
		{
			OFFSET 0.000000 7.722015 1.166203
			CHANNELS 3 Zrotation Yrotation Xrotation
			JOINT Spine1
			{
				OFFSET 0.000000 12.024086 0.248766
				CHANNELS 3 Zrotation Yrotation Xrotation
				JOINT Spine2
				{
					OFFSET -0.000000 11.503036 -0.491240
					CHANNELS 3 Zrotation Yrotation Xrotation
					JOINT Neck_virtual
					{
						OFFSET 0.000000 0.000000 0.000000
						CHANNELS 3 Zrotation Yrotation Xrotation
						JOINT Neck
						{
							OFFSET 0.000000 18.430687 -3.123054
							CHANNELS 3 Zrotation Yrotation Xrotation
							JOINT Head
							{
								OFFSET -0.000000 9.051071 1.034021
								CHANNELS 3 Zrotation Yrotation Xrotation
								End Site
								{
									OFFSET 0.000000 0.000000 0.000000
								}
							}
						}
					}
					JOINT LeftShoulder_virtual
					{
						OFFSET 0.000000 0.000000 0.000000
						CHANNELS 3 Zrotation Yrotation Xrotation
						JOINT LeftShoulder
						{
							OFFSET 6.197824 13.665230 -4.064723
							CHANNELS 3 Zrotation Yrotation Xrotation
							JOINT LeftArm
							{
								OFFSET 7.778132 -0.187073 -1.709282
								CHANNELS 3 Zrotation Yrotation Xrotation
								JOINT LeftForeArm
								{
									OFFSET 21.954697 0.000000 -2.041093
									CHANNELS 3 Zrotation Yrotation Xrotation
									JOINT LeftHand
									{
										OFFSET 22.992908 0.000000 -0.870901
										CHANNELS 3 Zrotation Yrotation Xrotation
										End Site
										{
											OFFSET 0.000000 0.000000 0.000000
										}
									}
								}
							}
						}
					}
					JOINT RightShoulder_virtual
					{
						OFFSET 0.000000 0.000000 0.000000
						CHANNELS 3 Zrotation Yrotation Xrotation
						JOINT RightShoulder
						{
							OFFSET -6.197824 13.665230 -4.064723
							CHANNELS 3 Zrotation Yrotation Xrotation
							JOINT RightArm
							{
								OFFSET -7.778132 -0.187073 -1.709282
								CHANNELS 3 Zrotation Yrotation Xrotation
								JOINT RightForeArm
								{
									OFFSET -21.954697 0.000000 -2.041093
									CHANNELS 3 Zrotation Yrotation Xrotation
									JOINT RightHand
									{
										OFFSET -22.992908 0.000000 -0.870901
										CHANNELS 3 Zrotation Yrotation Xrotation
										End Site
										{
											OFFSET 0.000000 0.000000 0.000000
										}
									}
								}
							}
						}
					}
				}
			}
		}
	}
}
MOTION
Frames: 11
Frame Time: 0.033333
-6.081205 63.756077 34.413799 -179.060103 22.652684 -178.567482 -5.286455 -10.378402 16.206511 6.511681 8.447110 8.900319 11.461841 -8.682054 21.557337 -9.081820 -10.007837 9.538139 0.000000 0.000000 0.000000 0.815307 -8.547808 18.705602 15.951395 9.732958 -0.231711 -6.359535 10.147629 13.118959 13.158872 5.565094 4.932823 0.000000 0.000000 0.000000 3.877591 -4.986658 -4.589037 6.321788 8.693940 -25.074144 -0.241346 -4.248754 13.522086 -0.177973 0.328859 0.189520 -1.168791 -2.575239 14.715123 -5.593290 0.310103 -0.072472 0.000000 0.000000 0.000000 1.068987 -1.696437 9.807565 0.820203 10.511536 2.611855 -69.822674 9.070238 -14.340213 -128.549365 -77.367253 -174.240639 0.000000 0.000000 0.000000 -5.145085 1.439156 9.021062 27.711667 -1.702905 6.574246 45.941563 -13.326899 -13.101718 -168.142278 66.432244 -168.538224 0.000000 0.000000 0.000000 
-6.906777 63.992733 32.383778 -179.181325 19.357410 -178.763085 -5.157573 -11.368261 14.382299 7.474658 9.776962 9.047169 11.030614 -9.324396 25.214451 -11.083603 -11.842846 10.675627 0.000000 0.000000 0.000000 1.021299 -9.885450 16.850594 16.979674 9.433479 1.452729 -6.987924 4.012130 12.701092 11.627519 4.456626 6.757615 0.000000 0.000000 0.000000 3.738093 -6.197064 -6.074631 6.160300 7.868795 -24.823821 -0.657731 -4.535101 13.564543 -0.024642 -0.118949 0.161221 -0.860714 -2.425690 14.767101 -5.468936 0.335165 -0.266161 0.000000 0.000000 0.000000 1.212599 -1.919322 9.947695 0.874991 10.234281 2.075252 -68.209992 6.957609 -19.657363 -132.357878 -75.995103 -169.872214 0.000000 0.000000 0.000000 -4.974383 1.037623 8.781502 27.020619 -1.747853 6.824535 45.034733 -10.706072 -20.558926 -168.060602 64.674303 -167.829660 0.000000 0.000000 0.000000 
-7.770857 64.107590 30.310411 -179.132680 18.603412 -178.858995 -3.621000 -13.095981 12.776549 5.693146 11.364736 9.550753 9.470039 -10.586854 28.753372 -13.004961 -14.108328 11.494692 0.000000 0.000000 0.000000 0.978552 -10.691747 15.288557 17.535315 9.296391 2.928022 -7.533104 -0.776788 12.609578 10.645168 4.152797 8.075074 0.000000 0.000000 0.000000 3.845399 -6.739419 -7.335020 6.454310 7.697645 -24.487598 -0.750680 -4.580822 13.559155 -0.124375 -0.155224 0.238686 -0.975349 -2.792678 14.754937 -5.649678 0.147419 -0.101465 0.000000 0.000000 0.000000 1.054290 -2.138220 10.241899 0.611578 10.081989 1.493281 -67.137426 5.613516 -23.324418 -137.209799 -74.660818 -164.561619 0.000000 0.000000 0.000000 -5.195248 0.934405 8.753152 26.105816 -1.205211 7.155267 43.844658 -8.048490 -26.822315 -168.254265 63.121951 -167.368554 0.000000 0.000000 0.000000 
-8.659713 64.063675 28.313126 -179.319240 18.923761 -179.001718 -4.719277 -12.174293 11.533966 7.992677 13.403015 10.821631 7.605509 -9.494657 31.272830 -12.362840 -14.418292 11.080181 0.000000 0.000000 0.000000 0.780272 -11.037540 14.143887 17.621646 9.413038 4.037320 -7.649777 -0.756663 12.881426 10.118714 4.452801 8.871129 0.000000 0.000000 0.000000 3.829279 -6.761912 -8.248733 6.718546 7.642108 -23.939576 -0.934541 -4.697019 13.655992 -0.006114 -0.062415 0.069289 -1.097936 -2.633502 14.690466 -5.941383 0.539003 -0.682586 0.000000 0.000000 0.000000 1.002559 -1.993675 9.977836 -0.100277 10.050684 1.280043 -67.269809 5.074227 -24.744826 -139.998743 -73.289214 -161.379857 0.000000 0.000000 0.000000 -5.197202 0.817034 8.579004 25.047400 -0.496646 7.631710 42.616887 -6.074479 -31.074082 -168.334438 61.927823 -166.832971 0.000000 0.000000 0.000000 
-9.636342 63.901096 26.502277 -179.488410 19.295375 -179.131383 -5.402435 -10.226828 9.610740 9.464562 14.168042 12.784661 7.924768 -7.854956 32.961192 -11.194192 -14.487757 9.856715 0.000000 0.000000 0.000000 0.526324 -10.965275 13.405179 17.308275 10.196069 4.851944 -7.675568 -0.482838 13.872249 10.116501 5.345959 9.190394 0.000000 0.000000 0.000000 3.791336 -6.642217 -8.914120 7.173068 7.474345 -23.478476 -1.139267 -4.599398 13.727283 -0.114938 -0.083920 0.121930 -1.363096 -2.764267 14.719555 -6.417078 0.521671 -0.772014 0.000000 0.000000 0.000000 0.702953 -2.074210 10.229899 -1.308774 9.794087 1.013501 -68.698364 5.100854 -24.076598 -143.908575 -72.514042 -157.215559 0.000000 0.000000 0.000000 -5.505134 0.822993 8.716864 24.468196 0.307175 8.152864 42.891515 -4.477580 -33.402279 -167.857841 61.517246 -165.834206 0.000000 0.000000 0.000000 
-10.614877 63.645401 24.877745 -179.473780 19.588199 -179.167910 -5.885517 -9.304319 9.403643 9.547232 14.723600 13.222937 7.646193 -6.952782 34.378531 -9.977182 -14.542036 8.196223 0.000000 0.000000 0.000000 0.376617 -10.761177 12.876112 16.651040 11.484156 5.338560 -7.348035 1.595567 15.726244 10.413599 6.514480 9.161889 0.000000 0.000000 0.000000 3.854065 -6.590900 -9.317491 7.595207 7.363446 -22.882442 -1.388425 -4.773701 13.819783 -0.149295 -0.117048 0.128042 -1.646942 -2.887162 14.781137 -6.954253 0.355723 -1.137772 0.000000 0.000000 0.000000 0.399453 -2.182885 10.446493 -2.783336 9.481487 0.847743 -71.363893 5.590258 -21.582010 -146.111516 -72.455316 -154.758713 0.000000 0.000000 0.000000 -5.760777 0.746870 8.801928 24.429474 1.014869 8.715271 44.414316 -3.465134 -33.467346 -167.124648 61.741468 -164.750884 0.000000 0.000000 0.000000 
-11.516582 63.380661 23.494652 -179.410560 20.078150 -179.232661 -6.397320 -8.638463 10.428896 9.009303 15.144362 12.595370 7.325009 -6.114211 35.311938 -9.019198 -14.660601 6.497801 0.000000 0.000000 0.000000 0.418324 -10.694222 12.428960 15.647149 12.815005 5.356540 -6.853502 3.979774 18.707021 10.785553 7.641164 8.966932 0.000000 0.000000 0.000000 4.065586 -6.994399 -9.417912 7.931917 7.324842 -22.133033 -1.656233 -4.789537 14.019146 -0.057623 -0.141739 0.088527 -1.947730 -2.829118 14.881705 -7.343603 0.436873 -1.657243 0.000000 0.000000 0.000000 0.220825 -2.169369 10.351017 -4.263219 9.209333 0.812849 -74.727351 6.543714 -17.485952 -148.559743 -73.288230 -152.102289 0.000000 0.000000 0.000000 -5.891931 0.786975 8.910598 24.774674 1.821476 9.306840 47.055673 -2.973420 -31.260584 -166.119654 62.355830 -163.530274 0.000000 0.000000 0.000000 
-12.239361 63.147915 22.392803 -179.406011 20.686380 -179.355235 -6.662307 -8.224543 10.983707 8.402789 15.218017 12.730360 7.128402 -5.386069 35.557750 -8.334955 -14.734996 5.008489 0.000000 0.000000 0.000000 0.734616 -10.659957 11.879900 14.309409 14.127131 5.019880 -6.221178 5.961029 22.598471 11.150397 8.598663 8.628536 0.000000 0.000000 0.000000 4.122846 -6.759782 -9.370366 8.103800 7.159950 -21.357774 -1.894489 -4.925994 14.223244 -0.070372 -0.388958 0.044900 -2.188923 -2.932146 15.059196 -7.745910 0.363891 -2.150905 0.000000 0.000000 0.000000 0.003936 -2.211845 10.462934 -5.221070 8.788966 0.913377 -77.617300 7.508699 -13.150583 -149.587126 -74.545299 -150.923767 0.000000 0.000000 0.000000 -6.116341 0.726195 9.028257 25.509797 2.566365 9.873715 50.193493 -2.811074 -27.243780 -165.262315 63.155665 -162.605767 0.000000 0.000000 0.000000 
-12.751839 63.019382 21.527109 -179.551125 21.328475 -179.812762 -6.757888 -8.007120 11.580756 7.832906 15.147334 13.116282 7.098613 -4.756427 35.352632 -7.961245 -14.725017 4.059457 0.000000 0.000000 0.000000 1.604783 -11.497682 11.341398 12.757949 15.125937 3.981866 -5.321303 7.224265 26.351440 11.548854 9.370220 8.232159 0.000000 0.000000 0.000000 4.163319 -6.758478 -8.998072 8.071787 7.052186 -20.489468 -2.054566 -4.890620 14.517021 -0.037449 -0.389698 0.018545 -2.280811 -2.915157 15.193430 -8.021114 0.113650 -2.555789 0.000000 0.000000 0.000000 -0.094062 -2.244605 10.631535 -5.863883 8.034805 1.045527 -79.187888 8.009623 -8.553732 -150.062357 -76.136610 -150.363022 0.000000 0.000000 0.000000 -6.193366 0.642650 9.134010 26.460334 3.268497 10.394700 52.845361 -2.972950 -22.045370 -164.685683 63.870315 -162.065240 0.000000 0.000000 0.000000 
-13.117070 62.974018 20.877283 -179.560878 21.623074 -179.847296 -6.663152 -7.938096 11.885444 7.289519 14.954539 13.207248 7.226820 -4.219298 35.130006 -7.857203 -14.617175 3.849752 0.000000 0.000000 0.000000 2.598293 -12.468819 11.310455 10.864627 15.898667 2.940391 -4.052212 8.096629 29.264717 12.249750 10.301908 7.922996 0.000000 0.000000 0.000000 4.326906 -7.100696 -8.670957 7.969507 6.896366 -19.853147 -2.119795 -4.806331 14.743993 -0.044450 -0.196823 0.004901 -2.353452 -3.016126 15.348748 -8.140534 0.178175 -2.940577 0.000000 0.000000 0.000000 -0.226228 -2.415170 10.686527 -5.460241 7.124690 1.344420 -79.447995 8.014343 -3.716753 -150.280964 -78.078877 -149.909347 0.000000 0.000000 0.000000 -6.279807 0.424398 9.216523 27.100124 4.174513 10.838462 54.255485 -3.188289 -16.116262 -164.916174 64.597504 -162.411148 0.000000 0.000000 0.000000 
-13.384171 62.989941 20.455416 -179.188196 21.680214 -179.568952 -6.491233 -8.043156 12.139972 6.840582 14.610171 13.055021 7.458847 -3.775040 34.877637 -7.946086 -14.510346 3.992128 0.000000 0.000000 0.000000 3.431816 -13.158058 11.370504 8.593648 16.759191 1.905883 -2.795560 9.193779 31.283096 13.605435 11.779325 7.386179 0.000000 0.000000 0.000000 4.688925 -7.317186 -8.370753 7.839864 6.523711 -19.382668 -2.194645 -5.059013 14.808482 0.026650 -0.237097 0.039875 -2.247711 -2.782365 15.414846 -8.100055 0.232693 -3.584301 0.000000 0.000000 0.000000 -0.115672 -2.273621 10.606375 -4.556304 6.125805 1.676687 -78.264344 7.222274 1.348607 -147.757947 -80.382843 -152.358503 0.000000 0.000000 0.000000 -6.093459 0.655771 9.213927 27.475242 5.301320 11.456883 53.813059 -3.253455 -9.842374 -165.352787 65.004891 -162.970171 0.000000 0.000000 0.000000 
